<mxfile host="app.diagrams.net" modified="2022-05-07T20:19:17.218Z" agent="5.0 (Windows NT 10.0; Win64; x64) AppleWebKit/537.36 (KHTML, like Gecko) Chrome/100.0.4896.127 Safari/537.36" etag="ijFOdL-LTkdAmrBKMU8F" version="17.5.0" type="github">
  <diagram id="CXBE_5KYZNczbY1qzfcM" name="Page-1">
    <mxGraphModel dx="1278" dy="2201" grid="1" gridSize="10" guides="1" tooltips="1" connect="1" arrows="1" fold="1" page="1" pageScale="1" pageWidth="1169" pageHeight="1654" math="0" shadow="0">
      <root>
        <mxCell id="0" />
        <mxCell id="1" parent="0" />
        <mxCell id="pudJgtLtRe6AO5ZKgs9n-53" value="" style="rounded=0;whiteSpace=wrap;html=1;" parent="1" vertex="1">
          <mxGeometry x="140" y="-50" width="760" height="760" as="geometry" />
        </mxCell>
        <mxCell id="pudJgtLtRe6AO5ZKgs9n-49" value="" style="shape=folder;fontStyle=1;spacingTop=10;tabWidth=70;tabHeight=30;tabPosition=left;html=1;fillColor=#dae8fc;gradientColor=#7ea6e0;strokeColor=#6c8ebf;" parent="1" vertex="1">
          <mxGeometry x="180" y="310" width="680" height="360" as="geometry" />
        </mxCell>
        <mxCell id="pudJgtLtRe6AO5ZKgs9n-47" value="" style="shape=folder;fontStyle=1;spacingTop=10;tabWidth=70;tabHeight=30;tabPosition=left;html=1;fillColor=#dae8fc;strokeColor=#6c8ebf;gradientColor=#7ea6e0;" parent="1" vertex="1">
          <mxGeometry x="180" y="-33" width="680" height="330" as="geometry" />
        </mxCell>
        <mxCell id="pudJgtLtRe6AO5ZKgs9n-1" value="Products" style="shape=folder;fontStyle=1;spacingTop=10;tabWidth=40;tabHeight=14;tabPosition=left;html=1;fillColor=#e6d0de;gradientColor=#d5739d;strokeColor=#996185;" parent="1" vertex="1">
          <mxGeometry x="680" y="20" width="70" height="50" as="geometry" />
        </mxCell>
        <mxCell id="pudJgtLtRe6AO5ZKgs9n-2" value="User Account" style="shape=folder;fontStyle=1;spacingTop=10;tabWidth=40;tabHeight=14;tabPosition=left;html=1;fillColor=#f8cecc;gradientColor=#ea6b66;strokeColor=#b85450;" parent="1" vertex="1">
          <mxGeometry x="250" y="220" width="100" height="50" as="geometry" />
        </mxCell>
        <mxCell id="pudJgtLtRe6AO5ZKgs9n-3" value="Cart" style="shape=folder;fontStyle=1;spacingTop=10;tabWidth=40;tabHeight=14;tabPosition=left;html=1;fillColor=#e6d0de;gradientColor=#d5739d;strokeColor=#996185;" parent="1" vertex="1">
          <mxGeometry x="430" y="20" width="70" height="50" as="geometry" />
        </mxCell>
        <mxCell id="pudJgtLtRe6AO5ZKgs9n-4" value="Orders" style="shape=folder;fontStyle=1;spacingTop=10;tabWidth=40;tabHeight=14;tabPosition=left;html=1;fillColor=#f8cecc;gradientColor=#ea6b66;strokeColor=#b85450;" parent="1" vertex="1">
          <mxGeometry x="260" y="150" width="70" height="50" as="geometry" />
        </mxCell>
        <mxCell id="pudJgtLtRe6AO5ZKgs9n-7" value="Dashboard" style="shape=folder;fontStyle=1;spacingTop=10;tabWidth=40;tabHeight=14;tabPosition=left;html=1;fillColor=#d5e8d4;gradientColor=#97d077;strokeColor=#82b366;" parent="1" vertex="1">
          <mxGeometry x="430" y="380" width="70" height="50" as="geometry" />
        </mxCell>
        <mxCell id="pudJgtLtRe6AO5ZKgs9n-8" value="Orders" style="shape=folder;fontStyle=1;spacingTop=10;tabWidth=40;tabHeight=14;tabPosition=left;html=1;fillColor=#d5e8d4;gradientColor=#97d077;strokeColor=#82b366;" parent="1" vertex="1">
          <mxGeometry x="300" y="350" width="70" height="55" as="geometry" />
        </mxCell>
        <mxCell id="pudJgtLtRe6AO5ZKgs9n-9" value="Employer" style="shape=folder;fontStyle=1;spacingTop=10;tabWidth=40;tabHeight=14;tabPosition=left;html=1;fillColor=#fff2cc;gradientColor=#ffd966;strokeColor=#d6b656;" parent="1" vertex="1">
          <mxGeometry x="350" y="600" width="100" height="50" as="geometry" />
        </mxCell>
        <mxCell id="pudJgtLtRe6AO5ZKgs9n-10" value="User" style="shape=folder;fontStyle=1;spacingTop=10;tabWidth=40;tabHeight=14;tabPosition=left;html=1;fillColor=#d5e8d4;gradientColor=#97d077;strokeColor=#82b366;" parent="1" vertex="1">
          <mxGeometry x="280" y="440" width="110" height="80" as="geometry" />
        </mxCell>
        <mxCell id="pudJgtLtRe6AO5ZKgs9n-15" style="edgeStyle=orthogonalEdgeStyle;rounded=0;orthogonalLoop=1;jettySize=auto;html=1;entryX=0.5;entryY=0.5;entryDx=0;entryDy=0;entryPerimeter=0;endArrow=blockThin;endFill=1;" parent="1" source="pudJgtLtRe6AO5ZKgs9n-21" target="pudJgtLtRe6AO5ZKgs9n-20" edge="1">
          <mxGeometry relative="1" as="geometry" />
        </mxCell>
        <mxCell id="pudJgtLtRe6AO5ZKgs9n-16" style="edgeStyle=orthogonalEdgeStyle;rounded=0;orthogonalLoop=1;jettySize=auto;html=1;entryX=0.5;entryY=0.5;entryDx=0;entryDy=0;entryPerimeter=0;endArrow=blockThin;endFill=1;" parent="1" source="pudJgtLtRe6AO5ZKgs9n-17" target="pudJgtLtRe6AO5ZKgs9n-21" edge="1">
          <mxGeometry relative="1" as="geometry" />
        </mxCell>
        <mxCell id="pudJgtLtRe6AO5ZKgs9n-27" style="edgeStyle=orthogonalEdgeStyle;rounded=0;orthogonalLoop=1;jettySize=auto;html=1;exitX=1;exitY=0.3333333333333333;exitDx=0;exitDy=0;exitPerimeter=0;entryX=0;entryY=0;entryDx=0;entryDy=41;entryPerimeter=0;endArrow=none;endFill=0;" parent="1" source="pudJgtLtRe6AO5ZKgs9n-17" target="pudJgtLtRe6AO5ZKgs9n-9" edge="1">
          <mxGeometry relative="1" as="geometry">
            <Array as="points">
              <mxPoint x="200" y="551" />
              <mxPoint x="200" y="641" />
            </Array>
          </mxGeometry>
        </mxCell>
        <mxCell id="pudJgtLtRe6AO5ZKgs9n-17" value="Admin" style="shape=umlActor;verticalLabelPosition=bottom;verticalAlign=top;html=1;outlineConnect=0;fillColor=#fff2cc;strokeColor=#d6b656;" parent="1" vertex="1">
          <mxGeometry x="97" y="531" width="30" height="60" as="geometry" />
        </mxCell>
        <mxCell id="pudJgtLtRe6AO5ZKgs9n-35" style="edgeStyle=orthogonalEdgeStyle;rounded=0;orthogonalLoop=1;jettySize=auto;html=1;entryX=0;entryY=0;entryDx=0;entryDy=23;entryPerimeter=0;endArrow=none;endFill=0;" parent="1" source="pudJgtLtRe6AO5ZKgs9n-18" target="pudJgtLtRe6AO5ZKgs9n-3" edge="1">
          <mxGeometry relative="1" as="geometry">
            <Array as="points">
              <mxPoint x="280" y="66" />
              <mxPoint x="280" y="43" />
            </Array>
          </mxGeometry>
        </mxCell>
        <mxCell id="pudJgtLtRe6AO5ZKgs9n-36" style="edgeStyle=orthogonalEdgeStyle;rounded=0;orthogonalLoop=1;jettySize=auto;html=1;endArrow=none;endFill=0;entryX=0;entryY=0;entryDx=0;entryDy=32;entryPerimeter=0;" parent="1" edge="1">
          <mxGeometry relative="1" as="geometry">
            <mxPoint x="130" y="66" as="sourcePoint" />
            <mxPoint x="680" y="48" as="targetPoint" />
            <Array as="points">
              <mxPoint x="280" y="66" />
              <mxPoint x="280" y="86" />
              <mxPoint x="540" y="86" />
              <mxPoint x="540" y="50" />
              <mxPoint x="680" y="50" />
            </Array>
          </mxGeometry>
        </mxCell>
        <mxCell id="pudJgtLtRe6AO5ZKgs9n-37" style="edgeStyle=orthogonalEdgeStyle;rounded=0;orthogonalLoop=1;jettySize=auto;html=1;entryX=0;entryY=0;entryDx=0;entryDy=32;entryPerimeter=0;endArrow=none;endFill=0;" parent="1" source="pudJgtLtRe6AO5ZKgs9n-18" target="pudJgtLtRe6AO5ZKgs9n-34" edge="1">
          <mxGeometry relative="1" as="geometry">
            <Array as="points">
              <mxPoint x="280" y="66" />
              <mxPoint x="280" y="102" />
            </Array>
          </mxGeometry>
        </mxCell>
        <mxCell id="pudJgtLtRe6AO5ZKgs9n-57" style="edgeStyle=orthogonalEdgeStyle;rounded=0;orthogonalLoop=1;jettySize=auto;html=1;entryX=0;entryY=0;entryDx=0;entryDy=32;entryPerimeter=0;endArrow=none;endFill=0;strokeWidth=1;" parent="1" source="pudJgtLtRe6AO5ZKgs9n-18" target="pudJgtLtRe6AO5ZKgs9n-56" edge="1">
          <mxGeometry relative="1" as="geometry">
            <Array as="points">
              <mxPoint x="280" y="66" />
              <mxPoint x="280" y="140" />
              <mxPoint x="530" y="140" />
              <mxPoint x="530" y="158" />
            </Array>
          </mxGeometry>
        </mxCell>
        <mxCell id="pudJgtLtRe6AO5ZKgs9n-18" value="Visitor" style="shape=umlActor;verticalLabelPosition=bottom;verticalAlign=top;html=1;outlineConnect=0;fillColor=#e1d5e7;strokeColor=#9673a6;" parent="1" vertex="1">
          <mxGeometry x="97" y="36" width="30" height="60" as="geometry" />
        </mxCell>
        <mxCell id="pudJgtLtRe6AO5ZKgs9n-19" style="edgeStyle=orthogonalEdgeStyle;rounded=0;orthogonalLoop=1;jettySize=auto;html=1;entryX=0.5;entryY=0.5;entryDx=0;entryDy=0;entryPerimeter=0;endArrow=blockThin;endFill=1;" parent="1" source="pudJgtLtRe6AO5ZKgs9n-20" target="pudJgtLtRe6AO5ZKgs9n-18" edge="1">
          <mxGeometry relative="1" as="geometry" />
        </mxCell>
        <mxCell id="pudJgtLtRe6AO5ZKgs9n-38" style="edgeStyle=orthogonalEdgeStyle;rounded=0;orthogonalLoop=1;jettySize=auto;html=1;endArrow=none;endFill=0;entryX=0;entryY=0;entryDx=0;entryDy=32;entryPerimeter=0;" parent="1" source="pudJgtLtRe6AO5ZKgs9n-20" target="pudJgtLtRe6AO5ZKgs9n-4" edge="1">
          <mxGeometry relative="1" as="geometry">
            <Array as="points">
              <mxPoint x="190" y="206" />
              <mxPoint x="190" y="180" />
              <mxPoint x="260" y="180" />
            </Array>
          </mxGeometry>
        </mxCell>
        <mxCell id="pudJgtLtRe6AO5ZKgs9n-39" style="edgeStyle=orthogonalEdgeStyle;rounded=0;orthogonalLoop=1;jettySize=auto;html=1;entryX=0;entryY=0;entryDx=0;entryDy=23;entryPerimeter=0;strokeWidth=1;endArrow=none;endFill=0;" parent="1" source="pudJgtLtRe6AO5ZKgs9n-20" target="pudJgtLtRe6AO5ZKgs9n-2" edge="1">
          <mxGeometry relative="1" as="geometry">
            <Array as="points">
              <mxPoint x="190" y="206" />
              <mxPoint x="190" y="243" />
            </Array>
          </mxGeometry>
        </mxCell>
        <mxCell id="pudJgtLtRe6AO5ZKgs9n-20" value="User" style="shape=umlActor;verticalLabelPosition=bottom;verticalAlign=top;html=1;outlineConnect=0;fillColor=#f8cecc;strokeColor=#b85450;" parent="1" vertex="1">
          <mxGeometry x="97" y="176" width="30" height="60" as="geometry" />
        </mxCell>
        <mxCell id="pudJgtLtRe6AO5ZKgs9n-29" style="edgeStyle=orthogonalEdgeStyle;rounded=0;orthogonalLoop=1;jettySize=auto;html=1;entryX=0;entryY=0;entryDx=0;entryDy=34.5;entryPerimeter=0;endArrow=none;endFill=0;" parent="1" source="pudJgtLtRe6AO5ZKgs9n-21" target="pudJgtLtRe6AO5ZKgs9n-8" edge="1">
          <mxGeometry relative="1" as="geometry">
            <Array as="points">
              <mxPoint x="210" y="433" />
              <mxPoint x="210" y="385" />
            </Array>
          </mxGeometry>
        </mxCell>
        <mxCell id="pudJgtLtRe6AO5ZKgs9n-30" style="edgeStyle=orthogonalEdgeStyle;rounded=0;orthogonalLoop=1;jettySize=auto;html=1;endArrow=none;endFill=0;" parent="1" source="pudJgtLtRe6AO5ZKgs9n-21" target="pudJgtLtRe6AO5ZKgs9n-10" edge="1">
          <mxGeometry relative="1" as="geometry">
            <Array as="points">
              <mxPoint x="210" y="433" />
              <mxPoint x="210" y="480" />
            </Array>
          </mxGeometry>
        </mxCell>
        <mxCell id="pudJgtLtRe6AO5ZKgs9n-31" style="edgeStyle=orthogonalEdgeStyle;rounded=0;orthogonalLoop=1;jettySize=auto;html=1;entryX=0;entryY=0;entryDx=0;entryDy=32;entryPerimeter=0;endArrow=none;endFill=0;" parent="1" source="pudJgtLtRe6AO5ZKgs9n-21" target="pudJgtLtRe6AO5ZKgs9n-7" edge="1">
          <mxGeometry relative="1" as="geometry">
            <Array as="points">
              <mxPoint x="210" y="433" />
              <mxPoint x="210" y="412" />
            </Array>
          </mxGeometry>
        </mxCell>
        <mxCell id="pudJgtLtRe6AO5ZKgs9n-32" style="edgeStyle=orthogonalEdgeStyle;rounded=0;orthogonalLoop=1;jettySize=auto;html=1;entryX=0;entryY=0;entryDx=0;entryDy=32;entryPerimeter=0;endArrow=none;endFill=0;" parent="1" target="pudJgtLtRe6AO5ZKgs9n-5" edge="1">
          <mxGeometry relative="1" as="geometry">
            <mxPoint x="130" y="433" as="sourcePoint" />
            <Array as="points">
              <mxPoint x="210" y="433" />
              <mxPoint x="210" y="530" />
              <mxPoint x="440" y="530" />
              <mxPoint x="440" y="487" />
            </Array>
          </mxGeometry>
        </mxCell>
        <mxCell id="pudJgtLtRe6AO5ZKgs9n-59" style="edgeStyle=orthogonalEdgeStyle;rounded=0;orthogonalLoop=1;jettySize=auto;html=1;entryX=0;entryY=0;entryDx=0;entryDy=32;entryPerimeter=0;endArrow=none;endFill=0;strokeWidth=1;" parent="1" source="pudJgtLtRe6AO5ZKgs9n-21" target="pudJgtLtRe6AO5ZKgs9n-58" edge="1">
          <mxGeometry relative="1" as="geometry">
            <Array as="points">
              <mxPoint x="210" y="433" />
              <mxPoint x="210" y="576" />
            </Array>
          </mxGeometry>
        </mxCell>
        <mxCell id="pudJgtLtRe6AO5ZKgs9n-21" value="Employer" style="shape=umlActor;verticalLabelPosition=bottom;verticalAlign=top;html=1;outlineConnect=0;fillColor=#d5e8d4;strokeColor=#82b366;" parent="1" vertex="1">
          <mxGeometry x="97" y="402.5" width="30" height="60" as="geometry" />
        </mxCell>
        <mxCell id="pudJgtLtRe6AO5ZKgs9n-5" value="Products" style="shape=folder;fontStyle=1;spacingTop=10;tabWidth=40;tabHeight=14;tabPosition=left;html=1;fillColor=#d5e8d4;gradientColor=#97d077;strokeColor=#82b366;" parent="1" vertex="1">
          <mxGeometry x="480" y="455" width="130" height="50" as="geometry" />
        </mxCell>
        <mxCell id="pudJgtLtRe6AO5ZKgs9n-34" value="Login/&lt;br&gt;Registrery" style="shape=folder;fontStyle=1;spacingTop=10;tabWidth=40;tabHeight=14;tabPosition=left;html=1;fillColor=#e6d0de;gradientColor=#d5739d;strokeColor=#996185;" parent="1" vertex="1">
          <mxGeometry x="585" y="70" width="70" height="50" as="geometry" />
        </mxCell>
        <mxCell id="pudJgtLtRe6AO5ZKgs9n-45" style="edgeStyle=orthogonalEdgeStyle;rounded=0;orthogonalLoop=1;jettySize=auto;html=1;entryX=0;entryY=0;entryDx=140;entryDy=32;entryPerimeter=0;endArrow=none;endFill=0;strokeWidth=1;" parent="1" source="pudJgtLtRe6AO5ZKgs9n-41" target="pudJgtLtRe6AO5ZKgs9n-43" edge="1">
          <mxGeometry relative="1" as="geometry" />
        </mxCell>
        <mxCell id="pudJgtLtRe6AO5ZKgs9n-41" value="&amp;lt;Systeme&amp;gt;&lt;br&gt;Stripe" style="shape=umlActor;verticalLabelPosition=bottom;verticalAlign=top;html=1;outlineConnect=0;fillColor=#fad9d5;strokeColor=#ae4132;" parent="1" vertex="1">
          <mxGeometry x="940" y="520" width="30" height="60" as="geometry" />
        </mxCell>
        <mxCell id="pudJgtLtRe6AO5ZKgs9n-46" style="edgeStyle=orthogonalEdgeStyle;rounded=0;orthogonalLoop=1;jettySize=auto;html=1;entryX=0;entryY=0;entryDx=130;entryDy=32;entryPerimeter=0;endArrow=none;endFill=0;strokeWidth=1;" parent="1" source="pudJgtLtRe6AO5ZKgs9n-42" target="pudJgtLtRe6AO5ZKgs9n-44" edge="1">
          <mxGeometry relative="1" as="geometry" />
        </mxCell>
        <mxCell id="pudJgtLtRe6AO5ZKgs9n-42" value="&amp;lt;Système&amp;gt;&lt;br&gt;MailJet" style="shape=umlActor;verticalLabelPosition=bottom;verticalAlign=top;html=1;outlineConnect=0;fillColor=#ffe6cc;strokeColor=#d79b00;" parent="1" vertex="1">
          <mxGeometry x="940" y="402.5" width="30" height="60" as="geometry" />
        </mxCell>
        <mxCell id="pudJgtLtRe6AO5ZKgs9n-43" value="Système de paiement" style="shape=folder;fontStyle=1;spacingTop=10;tabWidth=40;tabHeight=14;tabPosition=left;html=1;fillColor=#f5f5f5;strokeColor=#666666;gradientColor=#b3b3b3;" parent="1" vertex="1">
          <mxGeometry x="570" y="518" width="140" height="50" as="geometry" />
        </mxCell>
        <mxCell id="pudJgtLtRe6AO5ZKgs9n-44" value="Système mailling" style="shape=folder;fontStyle=1;spacingTop=10;tabWidth=40;tabHeight=14;tabPosition=left;html=1;fillColor=#ffcd28;gradientColor=#ffa500;strokeColor=#d79b00;" parent="1" vertex="1">
          <mxGeometry x="570" y="400" width="130" height="50" as="geometry" />
        </mxCell>
        <mxCell id="pudJgtLtRe6AO5ZKgs9n-48" value="user" style="text;align=center;fontStyle=1;verticalAlign=middle;spacingLeft=3;spacingRight=3;strokeColor=none;rotatable=0;points=[[0,0.5],[1,0.5]];portConstraint=eastwest;" parent="1" vertex="1">
          <mxGeometry x="179" y="-31" width="80" height="26" as="geometry" />
        </mxCell>
        <mxCell id="pudJgtLtRe6AO5ZKgs9n-51" value="Admin" style="text;align=center;fontStyle=1;verticalAlign=middle;spacingLeft=3;spacingRight=3;strokeColor=none;rotatable=0;points=[[0,0.5],[1,0.5]];portConstraint=eastwest;" parent="1" vertex="1">
          <mxGeometry x="170" y="317" width="80" height="26" as="geometry" />
        </mxCell>
        <mxCell id="pudJgtLtRe6AO5ZKgs9n-55" value="Système" style="text;html=1;strokeColor=none;fillColor=none;align=center;verticalAlign=middle;whiteSpace=wrap;rounded=0;" parent="1" vertex="1">
          <mxGeometry x="790" y="-40" width="60" height="30" as="geometry" />
        </mxCell>
        <mxCell id="pudJgtLtRe6AO5ZKgs9n-56" value="F.A.Q." style="shape=folder;fontStyle=1;spacingTop=10;tabWidth=40;tabHeight=14;tabPosition=left;html=1;fillColor=#e6d0de;gradientColor=#d5739d;strokeColor=#996185;" parent="1" vertex="1">
          <mxGeometry x="585" y="126" width="70" height="50" as="geometry" />
        </mxCell>
        <mxCell id="pudJgtLtRe6AO5ZKgs9n-58" value="Messages" style="shape=folder;fontStyle=1;spacingTop=10;tabWidth=40;tabHeight=14;tabPosition=left;html=1;fillColor=#d5e8d4;gradientColor=#97d077;strokeColor=#82b366;" parent="1" vertex="1">
          <mxGeometry x="309" y="544" width="100" height="50" as="geometry" />
        </mxCell>
      </root>
    </mxGraphModel>
  </diagram>
</mxfile>
